<?xml version="1.0" encoding="utf-8"?>
<!-- Generator: Adobe Illustrator 28.2.0, SVG Export Plug-In . SVG Version: 6.00 Build 0)  -->
<svg version="1.1" id="Layer_1" xmlns="http://www.w3.org/2000/svg" xmlns:xlink="http://www.w3.org/1999/xlink" x="0px" y="0px"
	 viewBox="0 0 40 40" style="enable-background:new 0 0 40 40;" xml:space="preserve">
<style type="text/css">
	.st0{fill:none;stroke:#FFFFFF;stroke-width:2.25;stroke-miterlimit:10;}
	.st1{fill:#FFFFFF;}
	.st2{fill:none;stroke:#000000;stroke-width:2.25;stroke-miterlimit:10;}
	.st3{fill:none;stroke:#000000;stroke-width:5.2941;stroke-miterlimit:10;}
	.st4{fill:#111111;}
</style>
<g>
	<g>
		<g>
			<path class="st4" d="M31.75,13.09H8.25c-0.83,0-1.5-0.67-1.5-1.5s0.67-1.5,1.5-1.5h23.5c0.83,0,1.5,0.67,1.5,1.5
				S32.58,13.09,31.75,13.09z"/>
		</g>
		<g>
			<circle class="st4" cx="24.41" cy="11.59" r="3.75"/>
		</g>
	</g>
	<g>
		<g>
			<path class="st4" d="M31.75,29.91H8.25c-0.83,0-1.5-0.67-1.5-1.5s0.67-1.5,1.5-1.5h23.5c0.83,0,1.5,0.67,1.5,1.5
				S32.58,29.91,31.75,29.91z"/>
		</g>
		<g>
			<circle class="st4" cx="24.41" cy="28.41" r="3.75"/>
		</g>
	</g>
	<g>
		<g>
			<path class="st4" d="M31.75,21.5H8.25c-0.83,0-1.5-0.67-1.5-1.5s0.67-1.5,1.5-1.5h23.5c0.83,0,1.5,0.67,1.5,1.5
				S32.58,21.5,31.75,21.5z"/>
		</g>
		<g>
			<circle class="st4" cx="15.56" cy="20" r="3.75"/>
		</g>
	</g>
</g>
</svg>
