<?xml version="1.0" encoding="utf-8"?>
<!-- Generator: Adobe Illustrator 28.2.0, SVG Export Plug-In . SVG Version: 6.00 Build 0)  -->
<svg version="1.1" id="Layer_1" xmlns="http://www.w3.org/2000/svg" xmlns:xlink="http://www.w3.org/1999/xlink" x="0px" y="0px"
	 viewBox="0 0 40 40" style="enable-background:new 0 0 40 40;" xml:space="preserve">
<style type="text/css">
	.st0{fill:none;stroke:#FFFFFF;stroke-width:2.25;stroke-miterlimit:10;}
	.st1{fill:#FFFFFF;}
	.st2{fill:none;stroke:#000000;stroke-width:2.25;stroke-miterlimit:10;}
	.st3{fill:none;stroke:#000000;stroke-width:5.2941;stroke-miterlimit:10;}
	.st4{fill:#111111;}
</style>
<g>
	<path class="st1" d="M11.69,20.89c-1.03-0.28-1.68,0.36-1.44,1.41c0.24,1.05,1.29,2.14,2.32,2.41c1.04,0.28,1.68-0.36,1.44-1.41
		C13.77,22.25,12.72,21.17,11.69,20.89z"/>
	<path class="st1" d="M18.66,28.38c-0.24-1.05-1.29-2.14-2.32-2.41c-1.04-0.28-1.68,0.36-1.44,1.41c0.24,1.05,1.29,2.14,2.32,2.41
		C18.26,30.07,18.9,29.43,18.66,28.38z"/>
	<path class="st1" d="M28.62,15.53c-0.74,0.64-1.16,1.93-0.94,2.89c0.22,0.96,1,1.22,1.74,0.58c0.74-0.64,1.16-1.93,0.94-2.89
		C30.13,15.15,29.36,14.89,28.62,15.53z"/>
	<path class="st1" d="M27,20.27c-0.74,0.64-1.16,1.93-0.94,2.89c0.22,0.96,1,1.22,1.74,0.58c0.74-0.64,1.16-1.93,0.94-2.89
		C28.51,19.89,27.74,19.64,27,20.27z"/>
	<path class="st1" d="M25.48,25.03c-0.73,0.64-1.15,1.93-0.93,2.89c0.22,0.96,1,1.22,1.73,0.58c0.73-0.64,1.15-1.93,0.93-2.89
		C26.99,24.65,26.22,24.39,25.48,25.03z"/>
	<path class="st1" d="M17.94,14.26c1.16,0,2.3-0.67,2.54-1.5c0.24-0.83-0.51-1.5-1.68-1.5c-1.16,0-2.3,0.67-2.54,1.5
		C16.03,13.59,16.78,14.26,17.94,14.26z"/>
	<path class="st1" d="M26,34.07l7.61-7.49c1.24-1.22,1.76-3,1.36-4.7L32.6,11.67c-0.4-1.7-1.66-3.08-3.32-3.62L19.09,4.73
		c-1.77-0.58-3.72-0.12-5.05,1.19L6.4,13.43c-1.25,1.23-1.76,3.02-1.36,4.72l2.42,10.19c0.4,1.7,1.66,3.06,3.31,3.6l10.17,3.32
		C22.72,35.84,24.67,35.38,26,34.07z M16.81,6.35l12.06,3.93l-9.03,8.6L7.77,15.23L16.81,6.35z M7.18,17.4l2.59,0.78l9.42,2.85
		l2.8,12.2L10,29.32L7.18,17.4z M24.17,32.71l-2.79-12.19l7.77-7.4l1.21-1.15l2.78,11.92L24.17,32.71z"/>
</g>
</svg>
