<?xml version="1.0" encoding="utf-8"?>
<!-- Generator: Adobe Illustrator 28.2.0, SVG Export Plug-In . SVG Version: 6.00 Build 0)  -->
<svg version="1.1" id="Layer_1" xmlns="http://www.w3.org/2000/svg" xmlns:xlink="http://www.w3.org/1999/xlink" x="0px" y="0px"
	 viewBox="0 0 40 40" style="enable-background:new 0 0 40 40;" xml:space="preserve">
<style type="text/css">
	.st0{fill:none;stroke:#FFFFFF;stroke-width:2.25;stroke-miterlimit:10;}
	.st1{fill:#FFFFFF;}
	.st2{fill:none;stroke:#000000;stroke-width:2.25;stroke-miterlimit:10;}
	.st3{fill:none;stroke:#000000;stroke-width:5.2941;stroke-miterlimit:10;}
	.st4{fill:#111111;}
</style>
<path class="st1" d="M20,5.91C12.22,5.91,5.91,12.22,5.91,20c0,7.78,6.31,14.09,14.09,14.09c7.78,0,14.09-6.31,14.09-14.09
	C34.09,12.22,27.78,5.91,20,5.91z M24.94,23.32c0.45,0.45,0.45,1.17,0,1.62c-0.45,0.45-1.17,0.45-1.62,0L20,21.62l-3.32,3.32
	c-0.45,0.45-1.17,0.45-1.62,0c-0.45-0.45-0.45-1.17,0-1.62L18.38,20l-3.32-3.32c-0.45-0.45-0.45-1.17,0-1.62
	c0.45-0.45,1.17-0.45,1.62,0L20,18.38l3.32-3.32c0.45-0.45,1.17-0.45,1.62,0c0.45,0.45,0.45,1.17,0,1.62L21.62,20L24.94,23.32z"/>
</svg>
