<?xml version="1.0" encoding="utf-8"?>
<!-- Generator: Adobe Illustrator 28.2.0, SVG Export Plug-In . SVG Version: 6.00 Build 0)  -->
<svg version="1.1" id="Layer_1" xmlns="http://www.w3.org/2000/svg" xmlns:xlink="http://www.w3.org/1999/xlink" x="0px" y="0px"
	 viewBox="0 0 40 40" style="enable-background:new 0 0 40 40;" xml:space="preserve">
<style type="text/css">
	.st0{fill:none;stroke:#FFFFFF;stroke-width:2.25;stroke-miterlimit:10;}
	.st1{fill:#FFFFFF;}
	.st2{fill:none;stroke:#000000;stroke-width:2.25;stroke-miterlimit:10;}
	.st3{fill:none;stroke:#000000;stroke-width:5.2941;stroke-miterlimit:10;}
	.st4{fill:#111111;}
</style>
<g>
	<g>
		<g>
			<g>
				<path class="st4" d="M20.11,34.88c-8.27,0-14.99-6.73-14.99-14.99c0-7.17,5.1-13.36,12.14-14.72c1.08-0.22,2.21,0.24,2.84,1.17
					c0.63,0.95,0.63,2.16,0.03,3.09c-0.8,1.23-1.22,2.64-1.22,4.1c0,4.16,3.39,7.55,7.56,7.55c1.46,0,2.88-0.42,4.09-1.21
					c0.94-0.61,2.14-0.6,3.08,0.01c0.95,0.65,1.41,1.77,1.19,2.88C33.47,29.78,27.29,34.88,20.11,34.88z M17.36,8.22
					c-5.39,1.27-9.24,6.1-9.24,11.67c0,6.61,5.38,11.99,11.99,11.99c5.58,0,10.41-3.86,11.67-9.24c-1.6,0.94-3.43,1.44-5.32,1.44
					c-5.82,0-10.56-4.73-10.56-10.55C15.91,11.66,16.41,9.83,17.36,8.22z M31.88,22.18C31.88,22.18,31.88,22.18,31.88,22.18
					C31.88,22.18,31.88,22.18,31.88,22.18z M17.84,8.12C17.84,8.12,17.84,8.12,17.84,8.12C17.84,8.12,17.84,8.12,17.84,8.12z"/>
			</g>
		</g>
	</g>
</g>
</svg>
