<?xml version="1.0" encoding="utf-8"?>
<!-- Generator: Adobe Illustrator 28.2.0, SVG Export Plug-In . SVG Version: 6.00 Build 0)  -->
<svg version="1.1" id="Layer_1" xmlns="http://www.w3.org/2000/svg" xmlns:xlink="http://www.w3.org/1999/xlink" x="0px" y="0px"
	 viewBox="0 0 100 100" style="enable-background:new 0 0 100 100;" xml:space="preserve">
<style type="text/css">
	.st0{fill:none;stroke:#FFFFFF;stroke-width:4;stroke-miterlimit:10;}
	.st1{fill:#FFFFFF;}
	.st2{fill:none;stroke:#000000;stroke-width:2;stroke-miterlimit:10;}
	.st3{stroke:#000000;stroke-width:2;stroke-miterlimit:10;}
	.st4{fill:#FFFFFF;stroke:#000000;stroke-width:2;stroke-miterlimit:10;}
	.st5{fill:none;stroke:#FFFFFF;stroke-width:2;stroke-miterlimit:10;}
	.st6{stroke:#FFFFFF;stroke-width:2;stroke-miterlimit:10;}
	.st7{fill:#FFFFFF;stroke:#FFFFFF;stroke-width:2;stroke-miterlimit:10;}
	.st8{fill:none;stroke:#FFFF00;stroke-miterlimit:10;}
	.st9{fill:url(#SVGID_1_);}
	.st10{fill:url(#SVGID_00000171677995611949524310000007641133975931840414_);}
	.st11{fill:url(#SVGID_00000057833007153443232590000005266064523476670891_);}
	.st12{fill:url(#SVGID_00000018198209684794602340000007683091243698025919_);}
	.st13{fill:url(#SVGID_00000090257015824576209330000001469102721329989521_);}
	.st14{fill:url(#SVGID_00000101076295111612417640000007988632938044551845_);}
	.st15{fill:none;stroke:#FFFFFF;stroke-width:5;stroke-linecap:round;stroke-miterlimit:10;}
	.st16{fill:none;stroke:#000000;stroke-width:4;stroke-miterlimit:10;}
	.st17{stroke:#FFFFFF;stroke-width:0.5;stroke-miterlimit:10;}
	.st18{fill:#FFFFFF;stroke:#000000;stroke-width:0.5;stroke-miterlimit:10;}
	.st19{fill:none;stroke:#000000;stroke-width:6;stroke-linecap:round;stroke-miterlimit:10;}
	.st20{stroke:#000000;stroke-width:0.25;stroke-miterlimit:10;}
</style>
<g>
	<path class="st1" d="M50,100C22.43,100,0,77.57,0,50C0,22.43,22.43,0,50,0c27.57,0,50,22.43,50,50C100,77.57,77.57,100,50,100z
		 M50,4.31C24.8,4.31,4.31,24.8,4.31,50c0,25.2,20.5,45.69,45.69,45.69c25.2,0,45.69-20.5,45.69-45.69C95.69,24.8,75.2,4.31,50,4.31
		z"/>
</g>
<g>
	<g>
		<g>
			<path class="st1" d="M74.55,35.12h-49.1c-1.49,0-2.69-1.2-2.69-2.69c0-1.49,1.2-2.69,2.69-2.69h49.1c1.49,0,2.69,1.2,2.69,2.69
				C77.24,33.91,76.04,35.12,74.55,35.12z"/>
		</g>
		<g>
			<circle class="st1" cx="59.22" cy="32.43" r="7.67"/>
		</g>
	</g>
	<g>
		<g>
			<path class="st1" d="M74.55,70.26h-49.1c-1.49,0-2.69-1.2-2.69-2.69c0-1.49,1.2-2.69,2.69-2.69h49.1c1.49,0,2.69,1.2,2.69,2.69
				C77.24,69.06,76.04,70.26,74.55,70.26z"/>
		</g>
		<g>
			<circle class="st1" cx="59.22" cy="67.57" r="7.67"/>
		</g>
	</g>
	<g>
		<g>
			<path class="st1" d="M74.55,52.69h-49.1c-1.49,0-2.69-1.2-2.69-2.69s1.2-2.69,2.69-2.69h49.1c1.49,0,2.69,1.2,2.69,2.69
				S76.04,52.69,74.55,52.69z"/>
		</g>
		<g>
			<circle class="st1" cx="40.73" cy="50" r="7.67"/>
		</g>
	</g>
</g>
</svg>
