<?xml version="1.0" encoding="utf-8"?>
<!-- Generator: Adobe Illustrator 28.2.0, SVG Export Plug-In . SVG Version: 6.00 Build 0)  -->
<svg version="1.1" id="Layer_1" xmlns="http://www.w3.org/2000/svg" xmlns:xlink="http://www.w3.org/1999/xlink" x="0px" y="0px"
	 viewBox="0 0 40 40" style="enable-background:new 0 0 40 40;" xml:space="preserve">
<style type="text/css">
	.st0{fill:none;stroke:#FFFFFF;stroke-width:2.25;stroke-miterlimit:10;}
	.st1{fill:#FFFFFF;}
	.st2{fill:none;stroke:#000000;stroke-width:2.25;stroke-miterlimit:10;}
	.st3{fill:none;stroke:#000000;stroke-width:5.2941;stroke-miterlimit:10;}
	.st4{fill:#111111;}
</style>
<g>
	<g>
		<g>
			
				<ellipse transform="matrix(0.7239 -0.6899 0.6899 0.7239 -12.3845 14.6644)" class="st4" cx="12.13" cy="22.8" rx="1.42" ry="2.37"/>
		</g>
		<g>
			
				<ellipse transform="matrix(0.7239 -0.6899 0.6899 0.7239 -14.6036 19.2764)" class="st4" cx="16.78" cy="27.88" rx="1.42" ry="2.37"/>
		</g>
		<g>
			<ellipse transform="matrix(0.303 -0.953 0.953 0.303 3.7745 39.6854)" class="st4" cx="29.02" cy="17.26" rx="2.15" ry="1.29"/>
		</g>
		<g>
			<ellipse transform="matrix(0.303 -0.953 0.953 0.303 -1.8795 41.4499)" class="st4" cx="27.4" cy="22.01" rx="2.15" ry="1.29"/>
		</g>
		<g>
			
				<ellipse transform="matrix(0.299 -0.9542 0.9542 0.299 -7.3961 43.4573)" class="st4" cx="25.88" cy="26.76" rx="2.14" ry="1.29"/>
		</g>
		<g>
			
				<ellipse transform="matrix(0.9693 -0.2457 0.2457 0.9693 -2.5723 4.9053)" class="st4" cx="18.37" cy="12.76" rx="2.19" ry="1.44"/>
		</g>
	</g>
	<g>
		<g>
			<path class="st4" d="M23.52,36.3c-0.14,0-0.29-0.02-0.43-0.07L8.63,31.5c-0.46-0.15-0.8-0.52-0.91-0.99L4.29,16.08
				c-0.11-0.48,0.04-0.98,0.4-1.32c0.36-0.34,0.87-0.46,1.34-0.32l14.5,4.39c0.47,0.14,0.83,0.53,0.94,1.01l3.39,14.78
				c0.11,0.48-0.05,0.99-0.41,1.32C24.19,36.18,23.86,36.3,23.52,36.3z M10.22,29.13l11.42,3.74l-2.67-11.63L7.52,17.77L10.22,29.13
				z"/>
		</g>
		<g>
			<path class="st4" d="M23.52,36.3c-0.13,0-0.26-0.02-0.38-0.05c-0.48-0.14-0.84-0.53-0.96-1.01L18.8,20.46
				c-0.11-0.47,0.04-0.97,0.39-1.3L30.06,8.8c0.36-0.34,0.87-0.46,1.34-0.32c0.47,0.14,0.83,0.53,0.95,1.01l3.37,14.45
				c0.11,0.47-0.03,0.96-0.37,1.29L24.49,35.91C24.23,36.16,23.88,36.3,23.52,36.3z M21.65,20.6l2.66,11.62l8.54-8.41l-2.65-11.36
				L21.65,20.6z"/>
		</g>
		<g>
			<path class="st4" d="M20.14,21.52c-0.13,0-0.27-0.02-0.4-0.06l-14.5-4.39c-0.46-0.14-0.82-0.52-0.94-0.99
				c-0.12-0.47,0.02-0.97,0.37-1.31L15.54,4.09c0.37-0.36,0.9-0.49,1.39-0.33l14.5,4.73c0.46,0.15,0.81,0.53,0.92,1
				c0.11,0.47-0.04,0.97-0.39,1.3L21.08,21.15C20.82,21.39,20.48,21.52,20.14,21.52z M8.25,15.12l11.52,3.49l8.62-8.21L16.87,6.64
				L8.25,15.12z"/>
		</g>
	</g>
</g>
</svg>
