<?xml version="1.0" encoding="utf-8"?>
<!-- Generator: Adobe Illustrator 28.2.0, SVG Export Plug-In . SVG Version: 6.00 Build 0)  -->
<svg version="1.1" id="Layer_1" xmlns="http://www.w3.org/2000/svg" xmlns:xlink="http://www.w3.org/1999/xlink" x="0px" y="0px"
	 viewBox="0 0 60 60" style="enable-background:new 0 0 60 60;" xml:space="preserve">
<style type="text/css">
	.st0{fill:none;stroke:#FFFFFF;stroke-width:2.25;stroke-miterlimit:10;}
	.st1{fill:#FFFFFF;}
	.st2{fill:none;stroke:#000000;stroke-width:2.25;stroke-miterlimit:10;}
	.st3{fill:none;stroke:#000000;stroke-width:5.2941;stroke-miterlimit:10;}
	.st4{fill:#111111;}
</style>
<path class="st1" d="M6.67,18.96L6.7,41.6c0,1.05,0.55,2.01,1.44,2.56L27.92,56.2c1.28,0.78,2.88,0.78,4.16,0l19.78-12.05
	c0.89-0.54,1.44-1.51,1.44-2.56l0.05-22.63c0-1.4-0.73-2.7-1.92-3.43L31.56,3.48c-0.96-0.58-2.16-0.58-3.11,0L8.59,15.54
	C7.39,16.26,6.67,17.56,6.67,18.96z M31.5,53.04v-6.67c0-0.83-0.67-1.5-1.5-1.5s-1.5,0.67-1.5,1.5v6.67L9.7,41.59L9.66,20.24
	l3.48,2.12c0.71,0.43,1.63,0.21,2.06-0.5c0.43-0.71,0.21-1.63-0.5-2.06l-3.67-2.24L30,6.04l18.97,11.52L45.3,19.8
	c-0.71,0.43-0.93,1.35-0.5,2.06c0.28,0.46,0.78,0.72,1.28,0.72c0.27,0,0.54-0.07,0.78-0.22l3.48-2.12L50.3,41.59L31.5,53.04z"/>
</svg>
