<?xml version="1.0" encoding="utf-8"?>
<!-- Generator: Adobe Illustrator 28.2.0, SVG Export Plug-In . SVG Version: 6.00 Build 0)  -->
<svg version="1.1" id="Layer_1" xmlns="http://www.w3.org/2000/svg" xmlns:xlink="http://www.w3.org/1999/xlink" x="0px" y="0px"
	 viewBox="0 0 40 40" style="enable-background:new 0 0 40 40;" xml:space="preserve">
<style type="text/css">
	.st0{fill:none;stroke:#FFFFFF;stroke-width:2.25;stroke-miterlimit:10;}
	.st1{fill:#FFFFFF;}
	.st2{fill:none;stroke:#000000;stroke-width:2.25;stroke-miterlimit:10;}
	.st3{fill:none;stroke:#000000;stroke-width:5.2941;stroke-miterlimit:10;}
	.st4{fill:#111111;}
</style>
<path d="M20,5.91C12.22,5.91,5.91,12.22,5.91,20S12.22,34.09,20,34.09c7.78,0,14.09-6.31,14.09-14.09S27.78,5.91,20,5.91z
	 M20.99,26.97c-0.14,0.24-0.33,0.43-0.57,0.58c-0.24,0.14-0.5,0.21-0.77,0.21c-0.28,0-0.54-0.07-0.78-0.21
	c-0.24-0.14-0.43-0.34-0.57-0.58c-0.14-0.24-0.2-0.5-0.2-0.77c0-0.28,0.07-0.54,0.2-0.77c0.14-0.24,0.32-0.42,0.57-0.56
	c0.24-0.14,0.5-0.2,0.78-0.2c0.27,0,0.53,0.07,0.77,0.2c0.24,0.14,0.43,0.32,0.57,0.56c0.14,0.24,0.21,0.5,0.21,0.77
	C21.2,26.48,21.13,26.73,20.99,26.97z M24.1,18.38c-0.37,0.58-0.91,1.09-1.61,1.52c-0.43,0.25-0.76,0.51-1.01,0.79
	c-0.25,0.27-0.43,0.59-0.56,0.96c-0.13,0.37-0.19,0.83-0.2,1.38v0.18h-2.28v-0.18c0.01-0.88,0.09-1.59,0.25-2.13
	c0.16-0.54,0.39-0.97,0.69-1.3c0.3-0.33,0.7-0.64,1.2-0.94c0.49-0.31,0.87-0.66,1.15-1.05s0.41-0.83,0.41-1.32
	c0-0.4-0.09-0.76-0.28-1.07c-0.19-0.31-0.44-0.54-0.77-0.71c-0.33-0.17-0.7-0.25-1.1-0.25c-0.38,0-0.73,0.08-1.05,0.24
	c-0.32,0.16-0.59,0.4-0.81,0.73c-0.21,0.33-0.33,0.73-0.36,1.19h-2.44c0.03-0.89,0.26-1.64,0.68-2.27c0.42-0.63,0.97-1.1,1.67-1.43
	c0.69-0.32,1.47-0.49,2.33-0.49c0.92,0,1.73,0.17,2.44,0.5c0.71,0.34,1.25,0.81,1.64,1.42c0.39,0.61,0.58,1.32,0.58,2.13
	C24.66,17.1,24.48,17.79,24.1,18.38z"/>
</svg>
