<?xml version="1.0" encoding="utf-8"?>
<!-- Generator: Adobe Illustrator 28.2.0, SVG Export Plug-In . SVG Version: 6.00 Build 0)  -->
<svg version="1.1" id="Layer_1" xmlns="http://www.w3.org/2000/svg" xmlns:xlink="http://www.w3.org/1999/xlink" x="0px" y="0px"
	 viewBox="0 0 40 40" style="enable-background:new 0 0 40 40;" xml:space="preserve">
<style type="text/css">
	.st0{fill:none;stroke:#FFFFFF;stroke-width:2.25;stroke-miterlimit:10;}
	.st1{fill:#FFFFFF;}
	.st2{fill:none;stroke:#000000;stroke-width:2.25;stroke-miterlimit:10;}
	.st3{fill:none;stroke:#000000;stroke-width:5.2941;stroke-miterlimit:10;}
	.st4{fill:#111111;}
</style>
<g>
	<g>
		<g>
			<path class="st1" d="M31.75,12.84H8.25C7.56,12.84,7,12.28,7,11.59s0.56-1.25,1.25-1.25h23.5c0.69,0,1.25,0.56,1.25,1.25
				S32.44,12.84,31.75,12.84z"/>
		</g>
		<g>
			<circle class="st1" cx="24.41" cy="11.59" r="3.75"/>
		</g>
	</g>
	<g>
		<g>
			<path class="st1" d="M31.75,29.66H8.25C7.56,29.66,7,29.1,7,28.41s0.56-1.25,1.25-1.25h23.5c0.69,0,1.25,0.56,1.25,1.25
				S32.44,29.66,31.75,29.66z"/>
		</g>
		<g>
			<circle class="st1" cx="24.41" cy="28.41" r="3.75"/>
		</g>
	</g>
	<g>
		<g>
			<path class="st1" d="M31.75,21.25H8.25C7.56,21.25,7,20.69,7,20s0.56-1.25,1.25-1.25h23.5c0.69,0,1.25,0.56,1.25,1.25
				S32.44,21.25,31.75,21.25z"/>
		</g>
		<g>
			<circle class="st1" cx="15.56" cy="20" r="3.75"/>
		</g>
	</g>
</g>
</svg>
