<?xml version="1.0" encoding="utf-8"?>
<!-- Generator: Adobe Illustrator 28.2.0, SVG Export Plug-In . SVG Version: 6.00 Build 0)  -->
<svg version="1.1" id="Layer_1" xmlns="http://www.w3.org/2000/svg" xmlns:xlink="http://www.w3.org/1999/xlink" x="0px" y="0px"
	 viewBox="0 0 60 60" style="enable-background:new 0 0 60 60;" xml:space="preserve">
<style type="text/css">
	.st0{fill:none;stroke:#FFFFFF;stroke-width:2.25;stroke-miterlimit:10;}
	.st1{fill:#FFFFFF;}
	.st2{fill:none;stroke:#000000;stroke-width:2.25;stroke-miterlimit:10;}
	.st3{fill:none;stroke:#000000;stroke-width:5.2941;stroke-miterlimit:10;}
	.st4{fill:#111111;}
</style>
<g>
	<g>
		<path class="st4" d="M30,57.21c-0.27,0-0.54-0.07-0.78-0.22L7.42,43.72c-0.45-0.27-0.72-0.76-0.72-1.28L6.65,17.56
			c0-0.83,0.67-1.5,1.5-1.5c0,0,0,0,0,0c0.83,0,1.5,0.67,1.5,1.5L9.7,41.59l21.08,12.84c0.71,0.43,0.93,1.35,0.5,2.06
			C31,56.96,30.5,57.21,30,57.21z"/>
	</g>
	<g>
		<path class="st4" d="M30,57.21c-0.25,0-0.51-0.06-0.73-0.19c-0.47-0.27-0.77-0.77-0.77-1.31v-9.34c0-0.83,0.67-1.5,1.5-1.5
			s1.5,0.67,1.5,1.5v6.67l18.8-11.45l0.05-24.03c0-0.83,0.67-1.5,1.5-1.5c0,0,0,0,0,0c0.83,0,1.5,0.67,1.5,1.5L53.3,42.44
			c0,0.52-0.27,1.01-0.72,1.28l-21.8,13.27C30.54,57.14,30.27,57.21,30,57.21z"/>
	</g>
	<g>
		<path class="st4" d="M46.08,22.58c-0.51,0-1-0.26-1.28-0.72c-0.43-0.71-0.21-1.63,0.5-2.06l3.67-2.24L30,6.04L11.04,17.56
			l3.67,2.24c0.71,0.43,0.93,1.35,0.5,2.06c-0.43,0.71-1.35,0.93-2.06,0.5l-5.77-3.52c-0.45-0.27-0.72-0.76-0.72-1.28
			s0.27-1.01,0.72-1.28L29.22,3.01c0.48-0.29,1.08-0.29,1.56,0l21.85,13.27c0.45,0.27,0.72,0.76,0.72,1.28s-0.27,1.01-0.72,1.28
			l-5.77,3.52C46.62,22.51,46.35,22.58,46.08,22.58z"/>
	</g>
</g>
</svg>
