<?xml version="1.0" encoding="utf-8"?>
<!-- Generator: Adobe Illustrator 28.2.0, SVG Export Plug-In . SVG Version: 6.00 Build 0)  -->
<svg version="1.1" id="Layer_1" xmlns="http://www.w3.org/2000/svg" xmlns:xlink="http://www.w3.org/1999/xlink" x="0px" y="0px"
	 viewBox="0 0 40 40" style="enable-background:new 0 0 40 40;" xml:space="preserve">
<style type="text/css">
	.st0{fill:none;stroke:#FFFFFF;stroke-width:2.25;stroke-miterlimit:10;}
	.st1{fill:#FFFFFF;}
	.st2{fill:none;stroke:#000000;stroke-width:2.25;stroke-miterlimit:10;}
	.st3{fill:none;stroke:#000000;stroke-width:5.2941;stroke-miterlimit:10;}
	.st4{fill:#111111;}
</style>
<g>
	<g>
		<g>
			<path class="st4" d="M37.04,11.01c-0.56-0.56-1.47-0.57-2.03-0.01c0,0-0.01,0.01-0.01,0.01l-1.86,1.87V4.84
				c0-0.79-0.64-1.44-1.44-1.44s-1.44,0.64-1.44,1.44v8.04l-1.86-1.87c-0.56-0.56-1.48-0.56-2.04,0c-0.56,0.56-0.56,1.48,0,2.04
				l4.31,4.31c0.14,0.13,0.3,0.23,0.47,0.3c0.35,0.15,0.74,0.15,1.09,0c0.18-0.07,0.34-0.17,0.47-0.3l4.31-4.31
				C37.61,12.49,37.61,11.58,37.04,11.01C37.05,11.01,37.05,11.01,37.04,11.01z M31.71,20.66c-0.79,0-1.44,0.64-1.44,1.44v0.55
				l-2.13-2.13c-1.56-1.55-4.09-1.55-5.65,0l-1.01,1.01l-3.57-3.57c-1.58-1.51-4.07-1.51-5.65,0l-2.13,2.13v-8.05
				c0-0.79,0.64-1.44,1.44-1.44h11.5c0.79,0,1.44-0.64,1.44-1.44c0-0.79-0.64-1.44-1.44-1.44h-11.5c-2.38,0-4.31,1.93-4.31,4.31
				v17.26c0,2.38,1.93,4.31,4.31,4.31h17.26c2.38,0,4.31-1.93,4.31-4.31V22.1C33.15,21.3,32.5,20.66,31.71,20.66z M11.58,30.72
				c-0.79,0-1.44-0.64-1.44-1.44v-5.13l4.17-4.17c0.44-0.42,1.13-0.42,1.57,0l4.56,4.56l0,0l6.18,6.18H11.58z M30.27,29.29
				c0,0.28-0.09,0.54-0.26,0.76l-6.49-6.51l1.01-1.01c0.43-0.44,1.13-0.44,1.57-0.02c0.01,0.01,0.01,0.01,0.02,0.02l4.16,4.18V29.29
				z"/>
		</g>
	</g>
</g>
</svg>
