<?xml version="1.0" encoding="utf-8"?>
<!-- Generator: Adobe Illustrator 28.2.0, SVG Export Plug-In . SVG Version: 6.00 Build 0)  -->
<svg version="1.1" id="Layer_1" xmlns="http://www.w3.org/2000/svg" xmlns:xlink="http://www.w3.org/1999/xlink" x="0px" y="0px"
	 viewBox="0 0 40 40" style="enable-background:new 0 0 40 40;" xml:space="preserve">
<style type="text/css">
	.st0{fill:none;stroke:#FFFFFF;stroke-width:2.25;stroke-miterlimit:10;}
	.st1{fill:#FFFFFF;}
	.st2{fill:none;stroke:#000000;stroke-width:2.25;stroke-miterlimit:10;}
	.st3{fill:none;stroke:#000000;stroke-width:5.2941;stroke-miterlimit:10;}
	.st4{fill:#111111;}
</style>
<g>
	<g>
		<g>
			
				<ellipse transform="matrix(0.7239 -0.6899 0.6899 0.7239 -12.3844 14.6645)" class="st1" cx="12.13" cy="22.8" rx="1.42" ry="2.37"/>
		</g>
		<g>
			
				<ellipse transform="matrix(0.7239 -0.6899 0.6899 0.7239 -14.6035 19.2765)" class="st1" cx="16.78" cy="27.88" rx="1.42" ry="2.37"/>
		</g>
		<g>
			<ellipse transform="matrix(0.303 -0.953 0.953 0.303 3.7747 39.6855)" class="st1" cx="29.02" cy="17.26" rx="2.15" ry="1.29"/>
		</g>
		<g>
			<ellipse transform="matrix(0.303 -0.953 0.953 0.303 -1.8794 41.4501)" class="st1" cx="27.4" cy="22.01" rx="2.15" ry="1.29"/>
		</g>
		<g>
			
				<ellipse transform="matrix(0.299 -0.9542 0.9542 0.299 -7.3959 43.4574)" class="st1" cx="25.88" cy="26.76" rx="2.14" ry="1.29"/>
		</g>
		<g>
			
				<ellipse transform="matrix(0.9693 -0.2457 0.2457 0.9693 -2.5723 4.9053)" class="st1" cx="18.37" cy="12.76" rx="2.19" ry="1.44"/>
		</g>
	</g>
	<g>
		<g>
			<path class="st1" d="M23.52,36.05c-0.12,0-0.24-0.02-0.35-0.06L8.71,31.27c-0.37-0.12-0.65-0.43-0.75-0.81L4.54,16.02
				c-0.09-0.39,0.03-0.8,0.32-1.08c0.29-0.28,0.71-0.37,1.1-0.26l14.5,4.39c0.39,0.12,0.68,0.43,0.77,0.83l3.39,14.78
				c0.09,0.39-0.04,0.81-0.34,1.08C24.07,35.95,23.8,36.05,23.52,36.05z M10,29.32l11.98,3.92l-2.8-12.2L7.18,17.4L10,29.32z"/>
		</g>
		<g>
			<path class="st1" d="M23.52,36.05c-0.11,0-0.21-0.01-0.31-0.04c-0.39-0.11-0.69-0.43-0.78-0.83L19.04,20.4
				c-0.09-0.39,0.03-0.79,0.32-1.07L30.23,8.98c0.29-0.28,0.71-0.38,1.1-0.26c0.39,0.12,0.68,0.43,0.77,0.82l3.37,14.45
				c0.09,0.38-0.03,0.78-0.31,1.06L24.31,35.73C24.1,35.94,23.81,36.05,23.52,36.05z M21.37,20.52l2.79,12.19l8.96-8.83l-2.78-11.92
				L21.37,20.52z"/>
		</g>
		<g>
			<path class="st1" d="M20.14,21.27c-0.11,0-0.22-0.02-0.33-0.05l-14.5-4.39c-0.38-0.12-0.67-0.42-0.77-0.81
				c-0.1-0.38,0.02-0.79,0.3-1.07L15.72,4.27c0.3-0.29,0.74-0.4,1.14-0.27l14.5,4.73c0.38,0.12,0.66,0.43,0.75,0.82
				c0.09,0.39-0.03,0.79-0.32,1.06L20.91,20.96C20.7,21.17,20.42,21.27,20.14,21.27z M7.77,15.23l12.06,3.65l9.03-8.6L16.81,6.35
				L7.77,15.23z"/>
		</g>
	</g>
</g>
</svg>
