<?xml version="1.0" encoding="utf-8"?>
<!-- Generator: Adobe Illustrator 28.2.0, SVG Export Plug-In . SVG Version: 6.00 Build 0)  -->
<svg version="1.1" id="Layer_1" xmlns="http://www.w3.org/2000/svg" xmlns:xlink="http://www.w3.org/1999/xlink" x="0px" y="0px"
	 viewBox="0 0 40 40" style="enable-background:new 0 0 40 40;" xml:space="preserve">
<style type="text/css">
	.st0{fill:none;stroke:#FFFFFF;stroke-width:2.25;stroke-miterlimit:10;}
	.st1{fill:#FFFFFF;}
	.st2{fill:none;stroke:#000000;stroke-width:2.25;stroke-miterlimit:10;}
	.st3{fill:none;stroke:#000000;stroke-width:5.2941;stroke-miterlimit:10;}
	.st4{fill:#111111;}
</style>
<g>
	<g>
		<path class="st1" d="M20,29.86c-5.43,0-9.85-4.42-9.85-9.86s4.42-9.86,9.85-9.86s9.86,4.42,9.86,9.86S25.43,29.86,20,29.86z
			 M20,13.14c-3.78,0-6.85,3.08-6.85,6.86s3.08,6.86,6.85,6.86c3.78,0,6.86-3.08,6.86-6.86S23.78,13.14,20,13.14z"/>
	</g>
	<g>
		<path class="st1" d="M35.43,21.71h-1.71C32.77,21.71,32,20.95,32,20s0.77-1.71,1.71-1.71h1.71c0.95,0,1.71,0.77,1.71,1.71
			S36.38,21.71,35.43,21.71z"/>
	</g>
	<g>
		<path class="st1" d="M6.29,21.71H4.57c-0.95,0-1.71-0.77-1.71-1.71s0.77-1.71,1.71-1.71h1.71C7.23,18.29,8,19.05,8,20
			S7.23,21.71,6.29,21.71z"/>
	</g>
	<g>
		<path class="st1" d="M29.7,12.01c-0.43-0.02-0.83-0.2-1.13-0.5c-0.66-0.67-0.66-1.75,0-2.42l1.22-1.22
			c0.62-0.72,1.7-0.8,2.42-0.19c0.72,0.62,0.8,1.7,0.19,2.42c-0.06,0.07-0.12,0.13-0.19,0.19l-1.22,1.22
			C30.65,11.85,30.18,12.03,29.7,12.01z"/>
	</g>
	<g>
		<path class="st1" d="M9.1,32.62c-0.46,0-0.89-0.18-1.22-0.5c-0.66-0.67-0.66-1.75,0-2.42l1.22-1.13c0.72-0.62,1.8-0.53,2.42,0.19
			c0.55,0.64,0.55,1.59,0,2.23l-1.22,1.22C9.96,32.49,9.53,32.64,9.1,32.62z"/>
	</g>
	<g>
		<path class="st1" d="M20,8c-0.95,0-1.71-0.77-1.71-1.71V4.57c0-0.95,0.77-1.71,1.71-1.71s1.71,0.77,1.71,1.71v1.71
			C21.71,7.23,20.95,8,20,8z"/>
	</g>
	<g>
		<path class="st1" d="M20,37.14c-0.95,0-1.71-0.77-1.71-1.71v-1.71c0-0.95,0.77-1.71,1.71-1.71s1.71,0.77,1.71,1.71v1.71
			C21.71,36.38,20.95,37.14,20,37.14z"/>
	</g>
	<g>
		<path class="st1" d="M10.3,12.01c-0.45,0-0.88-0.18-1.2-0.5L7.88,10.3C7.26,9.58,7.35,8.5,8.07,7.88c0.64-0.55,1.59-0.55,2.23,0
			l1.22,1.22c0.66,0.67,0.66,1.75,0,2.42C11.19,11.83,10.75,12.01,10.3,12.01z"/>
	</g>
	<g>
		<path class="st1" d="M30.9,32.62c-0.45,0-0.88-0.18-1.2-0.5l-1.13-1.22c-0.46-0.83-0.16-1.87,0.66-2.33
			c0.52-0.29,1.15-0.29,1.67,0l1.22,1.22c0.66,0.67,0.66,1.75,0,2.42C31.78,32.5,31.35,32.64,30.9,32.62z"/>
	</g>
</g>
</svg>
