<?xml version="1.0" encoding="utf-8"?>
<!-- Generator: Adobe Illustrator 28.2.0, SVG Export Plug-In . SVG Version: 6.00 Build 0)  -->
<svg version="1.1" id="Layer_1" xmlns="http://www.w3.org/2000/svg" xmlns:xlink="http://www.w3.org/1999/xlink" x="0px" y="0px"
	 viewBox="0 0 100 100" style="enable-background:new 0 0 100 100;" xml:space="preserve">
<style type="text/css">
	.st0{fill:none;stroke:#FFFFFF;stroke-width:4;stroke-miterlimit:10;}
	.st1{fill:#FFFFFF;}
	.st2{fill:none;stroke:#000000;stroke-width:2;stroke-miterlimit:10;}
	.st3{stroke:#000000;stroke-width:2;stroke-miterlimit:10;}
	.st4{fill:#FFFFFF;stroke:#000000;stroke-width:2;stroke-miterlimit:10;}
	.st5{fill:none;stroke:#FFFFFF;stroke-width:2;stroke-miterlimit:10;}
	.st6{stroke:#FFFFFF;stroke-width:2;stroke-miterlimit:10;}
	.st7{fill:#FFFFFF;stroke:#FFFFFF;stroke-width:2;stroke-miterlimit:10;}
	.st8{fill:none;stroke:#FFFF00;stroke-miterlimit:10;}
	.st9{fill:url(#SVGID_1_);}
	.st10{fill:url(#SVGID_00000037670385227273440300000005457692000312229021_);}
	.st11{fill:url(#SVGID_00000180367754192420648630000010921390496100528520_);}
	.st12{fill:url(#SVGID_00000024680482462791204860000006463904724726727312_);}
	.st13{fill:url(#SVGID_00000009590816559381008200000000109104218652457618_);}
	.st14{fill:url(#SVGID_00000122720342063888600080000015550355157090749839_);}
	.st15{fill:none;stroke:#FFFFFF;stroke-width:5;stroke-linecap:round;stroke-miterlimit:10;}
	.st16{fill:none;stroke:#000000;stroke-width:4;stroke-miterlimit:10;}
	.st17{stroke:#FFFFFF;stroke-width:0.5;stroke-miterlimit:10;}
	.st18{fill:#FFFFFF;stroke:#000000;stroke-width:0.5;stroke-miterlimit:10;}
	.st19{fill:none;stroke:#000000;stroke-width:6;stroke-linecap:round;stroke-miterlimit:10;}
	.st20{stroke:#000000;stroke-width:0.25;stroke-miterlimit:10;}
</style>
<g>
	<path d="M50,100C22.43,100,0,77.57,0,50C0,22.43,22.43,0,50,0c27.57,0,50,22.43,50,50C100,77.57,77.57,100,50,100z M50,4.31
		C24.8,4.31,4.31,24.8,4.31,50c0,25.2,20.5,45.69,45.69,45.69c25.2,0,45.69-20.5,45.69-45.69C95.69,24.8,75.2,4.31,50,4.31z"/>
</g>
<g>
	<g>
		<path d="M68.21,23.76l-21.16-6.21c-2.92-0.86-7.09,0.11-9.34,2.15l-16.3,14.85c-2.25,2.05-1.7,4.39,1.21,5.25l21.16,6.21
			c2.92,0.86,7.09-0.11,9.34-2.15l16.3-14.85C71.67,26.96,71.13,24.61,68.21,23.76z M42.38,34.55c-2.18-0.64-2.58-2.41-0.91-3.94
			c1.68-1.53,4.82-2.25,7-1.62s2.59,2.41,0.91,3.94C47.7,34.47,44.55,35.19,42.38,34.55z"/>
	</g>
	<g>
		<g>
			<path d="M82,55.35l-4.91-21.28c-0.68-2.93-3.05-3.72-5.31-1.77L55.4,46.49c-2.26,1.95-3.54,5.91-2.86,8.84l4.91,21.28
				c0.68,2.93,3.05,3.72,5.31,1.77l16.38-14.19C81.4,62.24,82.68,58.28,82,55.35z M68.29,45.38c-0.51-2.2,0.45-5.17,2.14-6.63
				c1.69-1.46,3.47-0.87,3.98,1.33c0.51,2.2-0.45,5.17-2.14,6.63C70.58,48.17,68.8,47.58,68.29,45.38z M64.21,58
				c-0.51-2.2,0.45-5.17,2.14-6.63s3.47-0.87,3.98,1.33s-0.45,5.17-2.14,6.63C66.5,60.79,64.72,60.19,64.21,58z M60.13,70.61
				c-0.51-2.2,0.45-5.16,2.13-6.62c1.68-1.46,3.46-0.86,3.97,1.34c0.51,2.2-0.45,5.16-2.13,6.62C62.42,73.4,60.64,72.8,60.13,70.61z
				"/>
		</g>
		<g>
			<path d="M29.31,75.68l20.94,5.58c2.89,0.77,4.67-0.98,4-3.91l-4.91-21.28c-0.68-2.93-3.56-5.93-6.44-6.7l-20.94-5.58
				c-2.89-0.77-4.67,0.98-4,3.91l4.91,21.28C23.54,71.92,26.43,74.91,29.31,75.68z M29.95,59.16c-2.16-0.57-4.33-2.83-4.83-5.02
				s0.84-3.51,3-2.94s4.33,2.83,4.83,5.02C33.46,58.41,32.11,59.73,29.95,59.16z M44.09,73.84c-2.16-0.57-4.33-2.83-4.83-5.02
				s0.84-3.51,3-2.94c2.16,0.57,4.33,2.83,4.83,5.02C47.59,73.1,46.25,74.42,44.09,73.84z"/>
		</g>
	</g>
</g>
</svg>
