<?xml version="1.0" encoding="utf-8"?>
<!-- Generator: Adobe Illustrator 28.2.0, SVG Export Plug-In . SVG Version: 6.00 Build 0)  -->
<svg version="1.1" id="Layer_1" xmlns="http://www.w3.org/2000/svg" xmlns:xlink="http://www.w3.org/1999/xlink" x="0px" y="0px"
	 viewBox="0 0 100 100" style="enable-background:new 0 0 100 100;" xml:space="preserve">
<style type="text/css">
	.st0{fill:#FFFFFF;}
	.st1{fill:none;stroke:#000000;stroke-width:2;stroke-miterlimit:10;}
	.st2{stroke:#000000;stroke-width:2;stroke-miterlimit:10;}
	.st3{fill:#FFFFFF;stroke:#000000;stroke-width:2;stroke-miterlimit:10;}
	.st4{fill:none;stroke:#FFFFFF;stroke-width:2;stroke-miterlimit:10;}
	.st5{stroke:#FFFFFF;stroke-width:2;stroke-miterlimit:10;}
	.st6{fill:#FFFFFF;stroke:#FFFFFF;stroke-width:2;stroke-miterlimit:10;}
	.st7{fill:#FFFFFF;stroke:#000000;stroke-width:4;stroke-miterlimit:10;}
	.st8{stroke:#FFFFFF;stroke-width:4;stroke-miterlimit:10;}
	.st9{fill:none;stroke:#FFFF00;stroke-miterlimit:10;}
</style>
<circle class="st7" cx="50" cy="50" r="44.45"/>
<g>
	<path d="M66.92,25.62l-19.65-5.77c-2.71-0.79-6.59,0.1-8.67,2L23.45,35.65c-2.09,1.9-1.58,4.08,1.12,4.88l19.65,5.77
		c2.71,0.79,6.59-0.1,8.67-2L68.05,30.5C70.13,28.59,69.63,26.41,66.92,25.62z M42.92,35.65c-2.02-0.59-2.4-2.24-0.84-3.66
		c1.56-1.42,4.48-2.09,6.51-1.5c2.02,0.59,2.4,2.24,0.84,3.66C47.87,35.57,44.94,36.24,42.92,35.65z"/>
	<g>
		<path d="M79.73,54.97L75.17,35.2c-0.63-2.72-2.84-3.46-4.93-1.64L55.02,46.74c-2.1,1.81-3.29,5.49-2.66,8.21l4.56,19.77
			c0.63,2.72,2.84,3.46,4.93,1.64l15.22-13.18C79.17,61.37,80.36,57.69,79.73,54.97z M66.99,45.71c-0.47-2.04,0.42-4.8,1.99-6.16
			c1.57-1.36,3.23-0.81,3.7,1.23s-0.42,4.8-1.99,6.16C69.12,48.3,67.46,47.75,66.99,45.71z M63.2,57.43
			c-0.47-2.04,0.42-4.8,1.99-6.16c1.57-1.36,3.23-0.81,3.7,1.23c0.47,2.04-0.42,4.8-1.99,6.16S63.67,59.47,63.2,57.43z M59.41,69.14
			c-0.47-2.04,0.42-4.8,1.98-6.15c1.56-1.35,3.21-0.8,3.69,1.24c0.47,2.04-0.42,4.8-1.98,6.15C61.53,71.74,59.88,71.19,59.41,69.14z
			"/>
		<path d="M30.78,73.85l19.46,5.18c2.68,0.71,4.34-0.91,3.71-3.64l-4.56-19.77c-0.63-2.72-3.31-5.51-5.99-6.22l-19.46-5.18
			c-2.68-0.71-4.34,0.91-3.71,3.64l4.56,19.77C25.42,70.36,28.1,73.14,30.78,73.85z M31.38,58.51c-2-0.53-4.02-2.63-4.49-4.67
			c-0.47-2.04,0.78-3.26,2.78-2.73c2,0.53,4.02,2.63,4.49,4.67S33.38,59.04,31.38,58.51z M44.51,72.15c-2-0.53-4.02-2.63-4.49-4.67
			c-0.47-2.04,0.78-3.26,2.78-2.73s4.02,2.63,4.49,4.67C47.77,71.46,46.51,72.68,44.51,72.15z"/>
	</g>
</g>
</svg>
