<?xml version="1.0" encoding="utf-8"?>
<!-- Generator: Adobe Illustrator 28.2.0, SVG Export Plug-In . SVG Version: 6.00 Build 0)  -->
<svg version="1.1" id="Layer_1" xmlns="http://www.w3.org/2000/svg" xmlns:xlink="http://www.w3.org/1999/xlink" x="0px" y="0px"
	 viewBox="0 0 100 100" style="enable-background:new 0 0 100 100;" xml:space="preserve">
<style type="text/css">
	.st0{fill:none;stroke:#FFFFFF;stroke-width:4;stroke-miterlimit:10;}
	.st1{fill:#FFFFFF;}
	.st2{fill:none;stroke:#000000;stroke-width:2;stroke-miterlimit:10;}
	.st3{stroke:#000000;stroke-width:2;stroke-miterlimit:10;}
	.st4{fill:#FFFFFF;stroke:#000000;stroke-width:2;stroke-miterlimit:10;}
	.st5{fill:none;stroke:#FFFFFF;stroke-width:2;stroke-miterlimit:10;}
	.st6{stroke:#FFFFFF;stroke-width:2;stroke-miterlimit:10;}
	.st7{fill:#FFFFFF;stroke:#FFFFFF;stroke-width:2;stroke-miterlimit:10;}
	.st8{fill:none;stroke:#FFFF00;stroke-miterlimit:10;}
	.st9{fill:url(#SVGID_1_);}
	.st10{fill:url(#SVGID_00000078046103685734557730000011245310792194849160_);}
	.st11{fill:url(#SVGID_00000003816448797379863750000014311054245845661117_);}
	.st12{fill:url(#SVGID_00000067949020148799432350000012401181723753076921_);}
	.st13{fill:url(#SVGID_00000005231150193864692310000002118389288203241891_);}
	.st14{fill:url(#SVGID_00000177467466815759334420000011938703773522281391_);}
	.st15{fill:none;stroke:#FFFFFF;stroke-width:5;stroke-linecap:round;stroke-miterlimit:10;}
	.st16{fill:none;stroke:#000000;stroke-width:4;stroke-miterlimit:10;}
	.st17{stroke:#FFFFFF;stroke-width:0.5;stroke-miterlimit:10;}
	.st18{fill:#FFFFFF;stroke:#000000;stroke-width:0.5;stroke-miterlimit:10;}
	.st19{fill:none;stroke:#000000;stroke-width:6;stroke-linecap:round;stroke-miterlimit:10;}
	.st20{stroke:#000000;stroke-width:0.25;stroke-miterlimit:10;}
</style>
<g>
	<path class="st1" d="M50,100C22.43,100,0,77.57,0,50C0,22.43,22.43,0,50,0c27.57,0,50,22.43,50,50C100,77.57,77.57,100,50,100z
		 M50,4.31C24.8,4.31,4.31,24.8,4.31,50c0,25.2,20.5,45.69,45.69,45.69c25.2,0,45.69-20.5,45.69-45.69C95.69,24.8,75.2,4.31,50,4.31
		z"/>
</g>
<g>
	<g>
		<path class="st1" d="M68.21,21.93l-21.16-6.21c-2.92-0.86-7.09,0.11-9.34,2.15l-16.3,14.85c-2.25,2.05-1.7,4.39,1.21,5.25
			l21.16,6.21c2.92,0.86,7.09-0.11,9.34-2.15l16.3-14.85C71.67,25.14,71.13,22.79,68.21,21.93z M42.38,32.73
			c-2.18-0.64-2.58-2.41-0.91-3.94c1.68-1.53,4.82-2.25,7-1.62s2.59,2.41,0.91,3.94C47.7,32.64,44.55,33.37,42.38,32.73z"/>
	</g>
	<g>
		<g>
			<path class="st1" d="M82,53.53l-4.91-21.28c-0.68-2.93-3.05-3.72-5.31-1.77L55.4,44.67c-2.26,1.95-3.54,5.91-2.86,8.84
				l4.91,21.28c0.68,2.93,3.05,3.72,5.31,1.77l16.38-14.19C81.4,60.42,82.68,56.46,82,53.53z M68.29,43.56
				c-0.51-2.2,0.45-5.17,2.14-6.63c1.69-1.46,3.47-0.87,3.98,1.33c0.51,2.2-0.45,5.17-2.14,6.63C70.58,46.35,68.8,45.76,68.29,43.56
				z M64.21,56.17c-0.51-2.2,0.45-5.17,2.14-6.63c1.69-1.46,3.47-0.87,3.98,1.33c0.51,2.2-0.45,5.17-2.14,6.63
				C66.5,58.96,64.72,58.37,64.21,56.17z M60.13,68.78c-0.51-2.2,0.45-5.16,2.13-6.62s3.46-0.86,3.97,1.34
				c0.51,2.2-0.45,5.16-2.13,6.62S60.64,70.98,60.13,68.78z"/>
		</g>
		<g>
			<path class="st1" d="M29.31,73.85l20.94,5.58c2.89,0.77,4.67-0.98,4-3.91l-4.91-21.28c-0.68-2.93-3.56-5.93-6.44-6.7l-20.94-5.58
				c-2.89-0.77-4.67,0.98-4,3.91l4.91,21.28C23.54,70.09,26.43,73.09,29.31,73.85z M29.95,57.33c-2.16-0.57-4.33-2.83-4.83-5.02
				c-0.51-2.19,0.84-3.51,3-2.94s4.33,2.83,4.83,5.02C33.46,56.58,32.11,57.91,29.95,57.33z M44.09,72.02
				c-2.16-0.57-4.33-2.83-4.83-5.02c-0.51-2.19,0.84-3.51,3-2.94c2.16,0.57,4.33,2.83,4.83,5.02
				C47.59,71.27,46.25,72.59,44.09,72.02z"/>
		</g>
	</g>
</g>
</svg>
