<?xml version="1.0" encoding="utf-8"?>
<!-- Generator: Adobe Illustrator 28.2.0, SVG Export Plug-In . SVG Version: 6.00 Build 0)  -->
<svg version="1.1" id="Layer_1" xmlns="http://www.w3.org/2000/svg" xmlns:xlink="http://www.w3.org/1999/xlink" x="0px" y="0px"
	 viewBox="0 0 100 100" style="enable-background:new 0 0 100 100;" xml:space="preserve">
<style type="text/css">
	.st0{fill:none;stroke:#FFFFFF;stroke-width:4;stroke-miterlimit:10;}
	.st1{fill:#FFFFFF;}
	.st2{fill:none;stroke:#000000;stroke-width:2;stroke-miterlimit:10;}
	.st3{stroke:#000000;stroke-width:2;stroke-miterlimit:10;}
	.st4{fill:#FFFFFF;stroke:#000000;stroke-width:2;stroke-miterlimit:10;}
	.st5{fill:none;stroke:#FFFFFF;stroke-width:2;stroke-miterlimit:10;}
	.st6{stroke:#FFFFFF;stroke-width:2;stroke-miterlimit:10;}
	.st7{fill:#FFFFFF;stroke:#FFFFFF;stroke-width:2;stroke-miterlimit:10;}
	.st8{fill:none;stroke:#000000;stroke-width:4;stroke-miterlimit:10;}
	.st9{fill:none;stroke:#FFFF00;stroke-miterlimit:10;}
	.st10{fill:url(#SVGID_1_);}
	.st11{fill:url(#SVGID_00000114771004051035233520000001709518589076520071_);}
	.st12{fill:url(#SVGID_00000100383119596040147970000013317001721276972175_);}
	.st13{fill:url(#SVGID_00000134215645677147041690000010254941358724275853_);}
	.st14{fill:url(#SVGID_00000046322020522421904510000000553232285525114770_);}
	.st15{fill:url(#SVGID_00000042002284486231727080000001082468332709289151_);}
</style>
<circle class="st0" cx="50" cy="50" r="44.45"/>
<g>
	<path class="st1" d="M66.92,23.93l-19.65-5.77c-2.71-0.79-6.59,0.1-8.67,2L23.45,33.95c-2.09,1.9-1.58,4.08,1.12,4.88l19.65,5.77
		c2.71,0.79,6.59-0.1,8.67-2L68.05,28.8C70.13,26.9,69.63,24.72,66.92,23.93z M42.92,33.96c-2.02-0.59-2.4-2.24-0.84-3.66
		c1.56-1.42,4.48-2.09,6.51-1.5c2.02,0.59,2.4,2.24,0.84,3.66C47.87,33.88,44.94,34.55,42.92,33.96z"/>
	<g>
		<path class="st1" d="M79.73,53.28l-4.56-19.77c-0.63-2.72-2.84-3.46-4.93-1.64L55.02,45.05c-2.1,1.81-3.29,5.49-2.66,8.21
			l4.56,19.77c0.63,2.72,2.84,3.46,4.93,1.64l15.22-13.18C79.17,59.68,80.36,56,79.73,53.28z M66.99,44.02
			c-0.47-2.04,0.42-4.8,1.99-6.16c1.57-1.36,3.23-0.81,3.7,1.23s-0.42,4.8-1.99,6.16C69.12,46.61,67.46,46.06,66.99,44.02z
			 M63.2,55.73c-0.47-2.04,0.42-4.8,1.99-6.16c1.57-1.36,3.23-0.81,3.7,1.23c0.47,2.04-0.42,4.8-1.99,6.16S63.67,57.77,63.2,55.73z
			 M59.41,67.45c-0.47-2.04,0.42-4.8,1.98-6.15c1.56-1.35,3.21-0.8,3.69,1.24c0.47,2.04-0.42,4.8-1.98,6.15
			C61.53,70.05,59.88,69.49,59.41,67.45z"/>
		<path class="st1" d="M30.78,72.16l19.46,5.18c2.68,0.71,4.34-0.91,3.71-3.64l-4.56-19.77c-0.63-2.72-3.31-5.51-5.99-6.22
			l-19.46-5.18c-2.68-0.71-4.34,0.91-3.71,3.64l4.56,19.77C25.42,68.67,28.1,71.45,30.78,72.16z M31.38,56.81
			c-2-0.53-4.02-2.63-4.49-4.67c-0.47-2.04,0.78-3.26,2.78-2.73s4.02,2.63,4.49,4.67C34.63,56.12,33.38,57.34,31.38,56.81z
			 M44.51,70.46c-2-0.53-4.02-2.63-4.49-4.67c-0.47-2.04,0.78-3.26,2.78-2.73c2,0.53,4.02,2.63,4.49,4.67
			C47.77,69.76,46.51,70.99,44.51,70.46z"/>
	</g>
</g>
</svg>
