<?xml version="1.0" encoding="utf-8"?>
<!-- Generator: Adobe Illustrator 28.2.0, SVG Export Plug-In . SVG Version: 6.00 Build 0)  -->
<svg version="1.1" id="Layer_1" xmlns="http://www.w3.org/2000/svg" xmlns:xlink="http://www.w3.org/1999/xlink" x="0px" y="0px"
	 viewBox="0 0 100 100" style="enable-background:new 0 0 100 100;" xml:space="preserve">
<style type="text/css">
	.st0{fill:none;stroke:#FFFFFF;stroke-width:4;stroke-miterlimit:10;}
	.st1{fill:#FFFFFF;}
	.st2{fill:none;stroke:#000000;stroke-width:2;stroke-miterlimit:10;}
	.st3{stroke:#000000;stroke-width:2;stroke-miterlimit:10;}
	.st4{fill:#FFFFFF;stroke:#000000;stroke-width:2;stroke-miterlimit:10;}
	.st5{fill:none;stroke:#FFFFFF;stroke-width:2;stroke-miterlimit:10;}
	.st6{stroke:#FFFFFF;stroke-width:2;stroke-miterlimit:10;}
	.st7{fill:#FFFFFF;stroke:#FFFFFF;stroke-width:2;stroke-miterlimit:10;}
	.st8{fill:none;stroke:#FFFF00;stroke-miterlimit:10;}
	.st9{fill:url(#SVGID_1_);}
	.st10{fill:url(#SVGID_00000056399257385221981160000009373722190687997603_);}
	.st11{fill:url(#SVGID_00000043434486902238854960000002133034073419296386_);}
	.st12{fill:url(#SVGID_00000006675027766729375400000009103870728002667168_);}
	.st13{fill:url(#SVGID_00000075131611179869550120000004111689796876122760_);}
	.st14{fill:url(#SVGID_00000102515361745535964110000009445150846183002037_);}
	.st15{fill:none;stroke:#FFFFFF;stroke-width:5;stroke-linecap:round;stroke-miterlimit:10;}
	.st16{fill:none;stroke:#000000;stroke-width:4;stroke-miterlimit:10;}
	.st17{stroke:#FFFFFF;stroke-width:0.5;stroke-miterlimit:10;}
	.st18{fill:#FFFFFF;stroke:#000000;stroke-width:0.5;stroke-miterlimit:10;}
	.st19{fill:none;stroke:#000000;stroke-width:6;stroke-linecap:round;stroke-miterlimit:10;}
	.st20{stroke:#000000;stroke-width:0.25;stroke-miterlimit:10;}
	.st21{fill:none;stroke:#000000;stroke-width:6;stroke-miterlimit:10;}
	.st22{fill:#FF1F20;}
	.st23{fill:none;stroke:#FFFFFF;stroke-width:6;stroke-miterlimit:10;}
</style>
<g>
	<path d="M50,100C22.43,100,0,77.57,0,50S22.43,0,50,0c27.57,0,50,22.43,50,50S77.57,100,50,100z M50,4.31
		C24.8,4.31,4.31,24.8,4.31,50S24.8,95.69,50,95.69c25.2,0,45.69-20.5,45.69-45.69S75.2,4.31,50,4.31z"/>
</g>
<circle class="st21" cx="50" cy="50" r="27.78"/>
<path class="st22" d="M61.12,65.5H38.88c-2.42,0-4.38-1.96-4.38-4.38V38.88c0-2.42,1.96-4.38,4.38-4.38h22.24
	c2.42,0,4.38,1.96,4.38,4.38v22.24C65.5,63.54,63.54,65.5,61.12,65.5z"/>
</svg>
