<?xml version="1.0" encoding="utf-8"?>
<!-- Generator: Adobe Illustrator 28.2.0, SVG Export Plug-In . SVG Version: 6.00 Build 0)  -->
<svg version="1.1" id="Layer_1" xmlns="http://www.w3.org/2000/svg" xmlns:xlink="http://www.w3.org/1999/xlink" x="0px" y="0px"
	 viewBox="0 0 100 100" style="enable-background:new 0 0 100 100;" xml:space="preserve">
<style type="text/css">
	.st0{fill:none;stroke:#FFFFFF;stroke-width:4;stroke-miterlimit:10;}
	.st1{fill:#FFFFFF;}
	.st2{fill:none;stroke:#000000;stroke-width:2;stroke-miterlimit:10;}
	.st3{stroke:#000000;stroke-width:2;stroke-miterlimit:10;}
	.st4{fill:#FFFFFF;stroke:#000000;stroke-width:2;stroke-miterlimit:10;}
	.st5{fill:none;stroke:#FFFFFF;stroke-width:2;stroke-miterlimit:10;}
	.st6{stroke:#FFFFFF;stroke-width:2;stroke-miterlimit:10;}
	.st7{fill:#FFFFFF;stroke:#FFFFFF;stroke-width:2;stroke-miterlimit:10;}
	.st8{fill:none;stroke:#FFFF00;stroke-miterlimit:10;}
	.st9{fill:url(#SVGID_1_);}
	.st10{fill:url(#SVGID_00000181085990566791641620000005582103356194099135_);}
	.st11{fill:url(#SVGID_00000137090613960566810160000013686756680732813734_);}
	.st12{fill:url(#SVGID_00000045614497848215703660000002083897453476013739_);}
	.st13{fill:url(#SVGID_00000040552624553822374160000003835559847736862642_);}
	.st14{fill:url(#SVGID_00000005974982156949967000000002652054855447027350_);}
	.st15{fill:none;stroke:#FFFFFF;stroke-width:5;stroke-linecap:round;stroke-miterlimit:10;}
	.st16{fill:none;stroke:#000000;stroke-width:4;stroke-miterlimit:10;}
	.st17{stroke:#FFFFFF;stroke-width:0.5;stroke-miterlimit:10;}
	.st18{fill:#FFFFFF;stroke:#000000;stroke-width:0.5;stroke-miterlimit:10;}
	.st19{fill:none;stroke:#000000;stroke-width:6;stroke-linecap:round;stroke-miterlimit:10;}
	.st20{stroke:#000000;stroke-width:0.25;stroke-miterlimit:10;}
</style>
<g>
	<path d="M50,100C22.43,100,0,77.57,0,50S22.43,0,50,0c27.57,0,50,22.43,50,50S77.57,100,50,100z M50,4.31
		C24.8,4.31,4.31,24.8,4.31,50S24.8,95.69,50,95.69c25.2,0,45.69-20.5,45.69-45.69S75.2,4.31,50,4.31z"/>
</g>
<g>
	<path d="M81.14,33.86c-1.1-1.11-2.89-1.12-4-0.02c-0.01,0.01-0.01,0.01-0.02,0.02l-3.65,3.67v-15.8c0-1.56-1.27-2.83-2.83-2.83
		c-1.56,0-2.83,1.27-2.83,2.83v15.8l-3.65-3.67c-1.11-1.11-2.91-1.11-4.01,0c-1.11,1.11-1.11,2.91,0,4.01l8.48,8.48
		c0.27,0.26,0.59,0.46,0.93,0.59c0.68,0.3,1.46,0.3,2.15,0c0.35-0.13,0.66-0.34,0.93-0.59l8.48-8.48c1.11-1.1,1.12-2.89,0.02-4
		C81.15,33.87,81.14,33.86,81.14,33.86z M70.65,52.83c-1.56,0-2.83,1.27-2.83,2.83v1.07l-4.18-4.18c-3.07-3.05-8.03-3.05-11.11,0
		l-1.98,1.98l-7.01-7.01c-3.11-2.96-8-2.96-11.11,0l-4.18,4.18V35.87c0-1.56,1.27-2.83,2.83-2.83h22.61c1.56,0,2.83-1.27,2.83-2.83
		s-1.27-2.83-2.83-2.83H31.07c-4.68,0-8.48,3.8-8.48,8.48v33.92c0,4.68,3.8,8.48,8.48,8.48h33.92c4.68,0,8.48-3.8,8.48-8.48V55.65
		C73.47,54.09,72.21,52.83,70.65,52.83z M31.07,72.62c-1.56,0-2.83-1.27-2.83-2.83V59.7l8.2-8.2c0.86-0.82,2.22-0.82,3.08,0
		l8.96,8.96l0,0l12.16,12.16H31.07z M67.82,69.79c0,0.54-0.18,1.07-0.51,1.5L54.56,58.48l1.98-1.98c0.84-0.86,2.22-0.87,3.08-0.03
		c0.01,0.01,0.02,0.02,0.03,0.03l8.17,8.23V69.79z"/>
	<path d="M64.99,78.4H31.07c-4.75,0-8.61-3.86-8.61-8.61V35.87c0-4.75,3.86-8.62,8.61-8.62h22.61c1.63,0,2.96,1.33,2.96,2.96
		c0,1.63-1.33,2.96-2.96,2.96H31.07c-1.48,0-2.69,1.21-2.69,2.69v15.5l3.95-3.95c3.17-3.02,8.13-3.01,11.3,0l6.92,6.92l1.88-1.88
		c3.12-3.09,8.18-3.09,11.3,0l3.95,3.95v-0.75c0-1.63,1.33-2.96,2.96-2.96s2.96,1.33,2.96,2.96v14.14
		C73.61,74.54,69.74,78.4,64.99,78.4z M31.07,27.52c-4.6,0-8.35,3.74-8.35,8.35v33.92c0,4.6,3.74,8.35,8.35,8.35h33.92
		c4.6,0,8.35-3.74,8.35-8.35V55.65c0-1.48-1.21-2.69-2.69-2.69c-1.48,0-2.69,1.21-2.69,2.69v1.4l-4.41-4.41
		c-3.01-2.99-7.91-2.99-10.92,0l-2.07,2.07l-0.1-0.09l-7.01-7.01c-3.06-2.91-7.86-2.91-10.92,0l-4.41,4.41V35.87
		c0-1.63,1.33-2.96,2.96-2.96h22.61c1.48,0,2.69-1.21,2.69-2.69c0-1.48-1.21-2.69-2.69-2.69H31.07z M60.97,72.75H31.07
		c-1.63,0-2.96-1.33-2.96-2.96V59.64l0.04-0.04l8.2-8.2c0.92-0.87,2.35-0.88,3.27,0L60.97,72.75z M28.38,59.75v10.04
		c0,1.48,1.21,2.69,2.69,2.69h29.24L39.43,51.59c-0.81-0.77-2.08-0.77-2.89,0L28.38,59.75z M67.33,71.49l-0.11-0.11l-12.84-12.9
		l2.07-2.07c0.89-0.91,2.36-0.93,3.27-0.03l0.03,0.03l8.21,8.27v5.12c0,0.57-0.19,1.13-0.54,1.58L67.33,71.49z M54.75,58.48
		l12.54,12.6c0.25-0.38,0.39-0.83,0.39-1.29v-5l-8.16-8.22c-0.8-0.79-2.1-0.77-2.89,0.03L54.75,58.48z M70.65,47.31
		c-0.39,0-0.77-0.08-1.13-0.24c-0.36-0.14-0.69-0.35-0.97-0.62l-8.48-8.48c-0.56-0.56-0.87-1.31-0.87-2.1c0-0.79,0.31-1.54,0.87-2.1
		c1.16-1.16,3.04-1.16,4.2,0l3.42,3.44V21.73c0-1.63,1.33-2.96,2.96-2.96s2.96,1.33,2.96,2.96v15.47l3.42-3.44
		c1.18-1.17,3.06-1.16,4.21,0l0.01,0.01c0.57,0.57,0.87,1.32,0.87,2.11c0,0.79-0.31,1.53-0.88,2.09l-8.48,8.48
		c-0.29,0.27-0.61,0.48-0.98,0.62C71.42,47.23,71.03,47.31,70.65,47.31z M62.17,33.16c-0.69,0-1.38,0.26-1.91,0.79
		c-0.51,0.51-0.79,1.19-0.79,1.91c0,0.72,0.28,1.4,0.79,1.91l8.48,8.48c0.26,0.24,0.55,0.44,0.89,0.56c0.65,0.29,1.4,0.29,2.05,0
		c0.34-0.13,0.64-0.32,0.89-0.57l8.48-8.48c0.51-0.51,0.79-1.18,0.8-1.9c0-0.72-0.27-1.4-0.78-1.91l-0.02-0.02
		c-1.04-1.05-2.75-1.06-3.81-0.01l-3.89,3.92V21.73c0-1.49-1.21-2.69-2.69-2.69c-1.48,0-2.69,1.21-2.69,2.69v16.13l-3.88-3.91
		C63.55,33.43,62.86,33.16,62.17,33.16z"/>
</g>
</svg>
