<?xml version="1.0" encoding="utf-8"?>
<!-- Generator: Adobe Illustrator 28.2.0, SVG Export Plug-In . SVG Version: 6.00 Build 0)  -->
<svg version="1.1" id="Layer_1" xmlns="http://www.w3.org/2000/svg" xmlns:xlink="http://www.w3.org/1999/xlink" x="0px" y="0px"
	 viewBox="0 0 100 100" style="enable-background:new 0 0 100 100;" xml:space="preserve">
<style type="text/css">
	.st0{fill:none;stroke:#FFFFFF;stroke-width:4;stroke-miterlimit:10;}
	.st1{fill:#FFFFFF;}
	.st2{fill:none;stroke:#000000;stroke-width:2;stroke-miterlimit:10;}
	.st3{stroke:#000000;stroke-width:2;stroke-miterlimit:10;}
	.st4{fill:#FFFFFF;stroke:#000000;stroke-width:2;stroke-miterlimit:10;}
	.st5{fill:none;stroke:#FFFFFF;stroke-width:2;stroke-miterlimit:10;}
	.st6{stroke:#FFFFFF;stroke-width:2;stroke-miterlimit:10;}
	.st7{fill:#FFFFFF;stroke:#FFFFFF;stroke-width:2;stroke-miterlimit:10;}
	.st8{fill:none;stroke:#000000;stroke-width:4;stroke-miterlimit:10;}
	.st9{fill:none;stroke:#FFFF00;stroke-miterlimit:10;}
	.st10{fill:url(#SVGID_1_);}
	.st11{fill:url(#SVGID_00000030452452455605050920000009649237599835638952_);}
	.st12{fill:url(#SVGID_00000159443181191960263410000006284389445185269174_);}
	.st13{fill:url(#SVGID_00000127737736624821597460000006439489546317308044_);}
	.st14{fill:url(#SVGID_00000132808423602602778810000016490237433722667667_);}
	.st15{fill:url(#SVGID_00000014603770711504089710000014257985318455492787_);}
	.st16{fill:none;stroke:#FFFFFF;stroke-width:5;stroke-linecap:round;stroke-miterlimit:10;}
	.st17{fill:none;stroke:#000000;stroke-width:6;stroke-linecap:round;stroke-miterlimit:10;}
	.st18{stroke:#FFFFFF;stroke-width:0.5;stroke-miterlimit:10;}
	.st19{fill:#FFFFFF;stroke:#000000;stroke-width:0.5;stroke-miterlimit:10;}
	.st20{stroke:#000000;stroke-width:0.25;stroke-miterlimit:10;}
</style>
<circle class="st8" cx="50" cy="50" r="44.45"/>
<path class="st20" d="M78.93,35c-1.02-1.03-2.68-1.04-3.71-0.02C75.21,34.99,75.2,35,75.2,35l-3.39,3.41V23.74
	c0-1.45-1.18-2.63-2.63-2.63s-2.63,1.18-2.63,2.63v14.68L63.17,35c-1.03-1.03-2.7-1.03-3.73,0c-1.03,1.03-1.03,2.7,0,3.73l7.88,7.88
	c0.25,0.24,0.54,0.43,0.87,0.55c0.64,0.28,1.36,0.28,2,0c0.32-0.12,0.62-0.31,0.87-0.55l7.88-7.88c1.03-1.02,1.04-2.68,0.02-3.71
	C78.94,35.02,78.93,35.01,78.93,35z M69.18,52.63c-1.45,0-2.63,1.18-2.63,2.63v1l-3.89-3.89c-2.86-2.83-7.46-2.83-10.32,0
	l-1.84,1.84L44,47.69c-2.89-2.75-7.43-2.75-10.32,0l-3.89,3.89V36.87c0-1.45,1.18-2.63,2.63-2.63h21.01c1.45,0,2.63-1.18,2.63-2.63
	s-1.18-2.63-2.63-2.63H32.42c-4.35,0-7.88,3.53-7.88,7.88v31.51c0,4.35,3.53,7.88,7.88,7.88h31.51c4.35,0,7.88-3.53,7.88-7.88V55.25
	C71.81,53.8,70.63,52.63,69.18,52.63z M32.42,71.01c-1.45,0-2.63-1.18-2.63-2.63v-9.38l7.62-7.62c0.8-0.76,2.06-0.76,2.86,0
	l8.33,8.33l0,0l11.29,11.29H32.42z M66.56,68.38c0,0.5-0.17,0.99-0.47,1.39l-11.84-11.9l1.84-1.84c0.78-0.8,2.06-0.81,2.86-0.03
	c0.01,0.01,0.02,0.02,0.03,0.03l7.59,7.64V68.38z"/>
</svg>
