<?xml version="1.0" encoding="utf-8"?>
<!-- Generator: Adobe Illustrator 28.2.0, SVG Export Plug-In . SVG Version: 6.00 Build 0)  -->
<svg version="1.1" id="Layer_1" xmlns="http://www.w3.org/2000/svg" xmlns:xlink="http://www.w3.org/1999/xlink" x="0px" y="0px"
	 viewBox="0 0 100 100" style="enable-background:new 0 0 100 100;" xml:space="preserve">
<style type="text/css">
	.st0{fill:none;stroke:#FFFFFF;stroke-width:4;stroke-miterlimit:10;}
	.st1{fill:#FFFFFF;}
	.st2{fill:none;stroke:#000000;stroke-width:2;stroke-miterlimit:10;}
	.st3{stroke:#000000;stroke-width:2;stroke-miterlimit:10;}
	.st4{fill:#FFFFFF;stroke:#000000;stroke-width:2;stroke-miterlimit:10;}
	.st5{fill:none;stroke:#FFFFFF;stroke-width:2;stroke-miterlimit:10;}
	.st6{stroke:#FFFFFF;stroke-width:2;stroke-miterlimit:10;}
	.st7{fill:#FFFFFF;stroke:#FFFFFF;stroke-width:2;stroke-miterlimit:10;}
	.st8{fill:none;stroke:#FFFF00;stroke-miterlimit:10;}
	.st9{fill:url(#SVGID_1_);}
	.st10{fill:url(#SVGID_00000103966030843302709350000016968566685144840121_);}
	.st11{fill:url(#SVGID_00000122712098289023028350000001031929237119349164_);}
	.st12{fill:url(#SVGID_00000179613062351369433730000002035277796267980215_);}
	.st13{fill:url(#SVGID_00000002348423589780611020000014572046984407934853_);}
	.st14{fill:url(#SVGID_00000132090216977964256450000012111519331809667219_);}
	.st15{fill:none;stroke:#FFFFFF;stroke-width:5;stroke-linecap:round;stroke-miterlimit:10;}
	.st16{fill:none;stroke:#000000;stroke-width:4;stroke-miterlimit:10;}
	.st17{stroke:#FFFFFF;stroke-width:0.5;stroke-miterlimit:10;}
	.st18{fill:#FFFFFF;stroke:#000000;stroke-width:0.5;stroke-miterlimit:10;}
	.st19{fill:none;stroke:#000000;stroke-width:6;stroke-linecap:round;stroke-miterlimit:10;}
	.st20{stroke:#000000;stroke-width:0.25;stroke-miterlimit:10;}
</style>
<g>
	<path class="st1" d="M50,100C22.43,100,0,77.57,0,50C0,22.43,22.43,0,50,0c27.57,0,50,22.43,50,50C100,77.57,77.57,100,50,100z
		 M50,4.31C24.8,4.31,4.31,24.8,4.31,50c0,25.2,20.5,45.69,45.69,45.69c25.2,0,45.69-20.5,45.69-45.69C95.69,24.8,75.2,4.31,50,4.31
		z"/>
</g>
<g>
	<g>
		<circle class="st1" cx="50" cy="50" r="22.3"/>
	</g>
	<g>
		<path class="st1" d="M83.24,53.69h-3.69c-2.04,0-3.69-1.65-3.69-3.69s1.65-3.69,3.69-3.69h3.69c2.04,0,3.69,1.65,3.69,3.69
			S85.28,53.69,83.24,53.69z"/>
	</g>
	<g>
		<path class="st1" d="M20.46,53.69h-3.69c-2.04,0-3.69-1.65-3.69-3.69s1.65-3.69,3.69-3.69h3.69c2.04,0,3.69,1.65,3.69,3.69
			S22.49,53.69,20.46,53.69z"/>
	</g>
	<g>
		<path class="st1" d="M70.9,32.79c-0.92-0.04-1.79-0.42-2.44-1.07c-1.43-1.44-1.43-3.77,0-5.21l2.62-2.62
			c1.33-1.55,3.66-1.73,5.21-0.4c1.55,1.33,1.73,3.66,0.4,5.21c-0.12,0.14-0.26,0.28-0.4,0.4l-2.62,2.62
			C72.94,32.45,71.94,32.84,70.9,32.79z"/>
	</g>
	<g>
		<path class="st1" d="M26.51,77.18c-0.98,0.01-1.93-0.38-2.62-1.07c-1.43-1.44-1.43-3.77,0-5.21l2.62-2.44
			c1.55-1.33,3.88-1.15,5.21,0.4c1.18,1.38,1.18,3.42,0,4.8l-2.62,2.62C28.38,76.91,27.46,77.23,26.51,77.18z"/>
	</g>
	<g>
		<path class="st1" d="M50,24.15c-2.04,0-3.69-1.65-3.69-3.69v-3.69c0-2.04,1.65-3.69,3.69-3.69c2.04,0,3.69,1.65,3.69,3.69v3.69
			C53.69,22.49,52.04,24.15,50,24.15z"/>
	</g>
	<g>
		<path class="st1" d="M50,86.93c-2.04,0-3.69-1.65-3.69-3.69v-3.69c0-2.04,1.65-3.69,3.69-3.69c2.04,0,3.69,1.65,3.69,3.69v3.69
			C53.69,85.28,52.04,86.93,50,86.93z"/>
	</g>
	<g>
		<path class="st1" d="M29.1,32.79c-0.97,0-1.9-0.39-2.59-1.07l-2.62-2.62c-1.33-1.55-1.15-3.88,0.4-5.21c1.38-1.18,3.42-1.18,4.8,0
			l2.62,2.62c1.43,1.44,1.43,3.77,0,5.21C31.02,32.41,30.08,32.8,29.1,32.79z"/>
	</g>
	<g>
		<path class="st1" d="M73.49,77.18c-0.97,0-1.9-0.39-2.59-1.07l-2.44-2.62c-0.99-1.78-0.35-4.03,1.43-5.02
			c1.12-0.62,2.47-0.62,3.59,0l2.62,2.62c1.43,1.44,1.43,3.77,0,5.21C75.38,76.92,74.44,77.24,73.49,77.18z"/>
	</g>
</g>
</svg>
