<?xml version="1.0" encoding="utf-8"?>
<!-- Generator: Adobe Illustrator 28.2.0, SVG Export Plug-In . SVG Version: 6.00 Build 0)  -->
<svg version="1.1" id="Layer_1" xmlns="http://www.w3.org/2000/svg" xmlns:xlink="http://www.w3.org/1999/xlink" x="0px" y="0px"
	 viewBox="0 0 100 100" style="enable-background:new 0 0 100 100;" xml:space="preserve">
<style type="text/css">
	.st0{fill:#FFFFFF;}
	.st1{fill:none;stroke:#000000;stroke-width:2;stroke-miterlimit:10;}
	.st2{stroke:#000000;stroke-width:2;stroke-miterlimit:10;}
	.st3{fill:#FFFFFF;stroke:#000000;stroke-width:2;stroke-miterlimit:10;}
	.st4{fill:none;stroke:#FFFFFF;stroke-width:2;stroke-miterlimit:10;}
	.st5{stroke:#FFFFFF;stroke-width:2;stroke-miterlimit:10;}
	.st6{fill:#FFFFFF;stroke:#FFFFFF;stroke-width:2;stroke-miterlimit:10;}
	.st7{fill:#FFFFFF;stroke:#000000;stroke-width:4;stroke-miterlimit:10;}
	.st8{stroke:#FFFFFF;stroke-width:4;stroke-miterlimit:10;}
</style>
<circle class="st8" cx="50" cy="50" r="44.45"/>
<g>
	<circle class="st0" cx="50" cy="50" r="20.72"/>
	<path class="st0" d="M80.88,53.43h-3.43c-1.89,0-3.43-1.54-3.43-3.43s1.54-3.43,3.43-3.43h3.43c1.89,0,3.43,1.54,3.43,3.43
		S82.77,53.43,80.88,53.43z"/>
	<path class="st0" d="M22.55,53.43h-3.43c-1.89,0-3.43-1.54-3.43-3.43s1.54-3.43,3.43-3.43h3.43c1.89,0,3.43,1.54,3.43,3.43
		S24.45,53.43,22.55,53.43z"/>
	<path class="st0" d="M69.42,34.01c-0.85-0.04-1.66-0.39-2.26-0.99c-1.33-1.34-1.33-3.5,0-4.84l2.44-2.44
		c1.23-1.44,3.4-1.61,4.84-0.37c1.44,1.23,1.61,3.4,0.37,4.84c-0.11,0.13-0.24,0.26-0.37,0.37l-2.44,2.44
		C71.31,33.69,70.38,34.05,69.42,34.01z"/>
	<path class="st0" d="M28.18,75.25c-0.91,0.01-1.79-0.35-2.44-0.99c-1.33-1.34-1.33-3.5,0-4.84l2.44-2.26
		c1.44-1.23,3.61-1.06,4.84,0.37c1.1,1.28,1.1,3.18,0,4.46l-2.44,2.44C29.91,75,29.06,75.29,28.18,75.25z"/>
	<path class="st0" d="M50,25.98c-1.89,0-3.43-1.54-3.43-3.43v-3.43c0-1.89,1.54-3.43,3.43-3.43s3.43,1.54,3.43,3.43v3.43
		C53.43,24.45,51.89,25.98,50,25.98z"/>
	<path class="st0" d="M50,84.31c-1.89,0-3.43-1.54-3.43-3.43v-3.43c0-1.89,1.54-3.43,3.43-3.43s3.43,1.54,3.43,3.43v3.43
		C53.43,82.77,51.89,84.31,50,84.31z"/>
	<path class="st0" d="M30.58,34.01c-0.9,0-1.76-0.36-2.4-0.99l-2.44-2.44c-1.23-1.44-1.06-3.61,0.37-4.84c1.28-1.1,3.18-1.1,4.46,0
		l2.44,2.44c1.33,1.34,1.33,3.5,0,4.84C32.37,33.66,31.49,34.02,30.58,34.01z"/>
	<path class="st0" d="M71.82,75.25c-0.9,0-1.76-0.36-2.4-0.99l-2.26-2.44c-0.92-1.66-0.33-3.75,1.33-4.67c1.04-0.58,2.3-0.58,3.34,0
		l2.44,2.44c1.33,1.34,1.33,3.5,0,4.84C73.58,75.01,72.71,75.3,71.82,75.25z"/>
</g>
</svg>
