<?xml version="1.0" encoding="utf-8"?>
<!-- Generator: Adobe Illustrator 28.2.0, SVG Export Plug-In . SVG Version: 6.00 Build 0)  -->
<svg version="1.1" id="Layer_1" xmlns="http://www.w3.org/2000/svg" xmlns:xlink="http://www.w3.org/1999/xlink" x="0px" y="0px"
	 viewBox="0 0 100 100" style="enable-background:new 0 0 100 100;" xml:space="preserve">
<style type="text/css">
	.st0{fill:#FFFFFF;}
	.st1{fill:none;stroke:#000000;stroke-width:2;stroke-miterlimit:10;}
	.st2{stroke:#000000;stroke-width:2;stroke-miterlimit:10;}
	.st3{fill:#FFFFFF;stroke:#000000;stroke-width:2;stroke-miterlimit:10;}
	.st4{fill:none;stroke:#FFFFFF;stroke-width:2;stroke-miterlimit:10;}
	.st5{stroke:#FFFFFF;stroke-width:2;stroke-miterlimit:10;}
	.st6{fill:#FFFFFF;stroke:#FFFFFF;stroke-width:2;stroke-miterlimit:10;}
	.st7{fill:#FFFFFF;stroke:#000000;stroke-width:4;stroke-miterlimit:10;}
	.st8{stroke:#FFFFFF;stroke-width:4;stroke-miterlimit:10;}
</style>
<circle class="st7" cx="50" cy="50" r="44.45"/>
<g>
	<path d="M50.24,79.01c13.98,0,26.08-9.96,28.71-23.68c0.22-1.1-0.24-2.23-1.18-2.86c-0.94-0.62-2.15-0.64-3.11-0.02
		c-3.16,2.06-6.85,3.14-10.65,3.14c-10.82,0-19.64-8.8-19.64-19.62c0-3.8,1.1-7.49,3.16-10.65c0.62-0.95,0.6-2.17-0.02-3.11
		c-0.64-0.94-1.76-1.4-2.86-1.18c-13.72,2.64-23.68,14.73-23.68,28.71C20.99,65.89,34.11,79.01,50.24,79.01z"/>
</g>
</svg>
